<svg width="17" height="12" viewBox="0 0 17 12" fill="none" xmlns="http://www.w3.org/2000/svg">
<path d="M0.262434 5.05583L5.12494 0.221228C5.42161 -0.0737428 5.90276 -0.0737428 6.19943 0.221228C6.49617 0.51626 6.49617 0.994523 6.19943 1.28955L2.63394 4.83459H15.6201C16.0397 4.83459 16.3799 5.17283 16.3799 5.58999C16.3799 6.0071 16.0397 6.3454 15.6201 6.3454H2.63394L6.19931 9.89043C6.49605 10.1855 6.49605 10.6637 6.19931 10.9588C6.05101 11.1062 5.8565 11.18 5.66207 11.18C5.46763 11.18 5.27319 11.1062 5.12482 10.9588L0.262434 6.12416C-0.0343018 5.82912 -0.0343018 5.35086 0.262434 5.05583Z" fill="white"/>
</svg>
