<svg width="30" height="30" viewBox="0 0 30 30" fill="none" xmlns="http://www.w3.org/2000/svg">
<rect width="30" height="30" rx="15" fill="url(#paint0_linear_747_4079)"/>
<path d="M15.5015 12.167C13.6569 12.167 12.1692 13.6551 12.1692 15.5C12.1692 17.3449 13.6569 18.833 15.5015 18.833C17.346 18.833 18.8337 17.3449 18.8337 15.5C18.8337 13.6551 17.346 12.167 15.5015 12.167ZM15.5015 17.6669C14.3095 17.6669 13.335 16.6951 13.335 15.5C13.335 14.3049 14.3066 13.3331 15.5015 13.3331C16.6963 13.3331 17.6679 14.3049 17.6679 15.5C17.6679 16.6951 16.6934 17.6669 15.5015 17.6669ZM19.7473 12.0306C19.7473 12.4628 19.3993 12.808 18.9701 12.808C18.5379 12.808 18.1928 12.4599 18.1928 12.0306C18.1928 11.6013 18.5408 11.2532 18.9701 11.2532C19.3993 11.2532 19.7473 11.6013 19.7473 12.0306ZM21.9543 12.8196C21.905 11.7783 21.6672 10.8558 20.9045 10.0958C20.1446 9.33577 19.2224 9.0979 18.1812 9.04569C17.1081 8.98477 13.8919 8.98477 12.8188 9.04569C11.7805 9.095 10.8583 9.33287 10.0955 10.0929C9.33279 10.8529 9.09788 11.7754 9.04568 12.8167C8.98477 13.89 8.98477 17.1071 9.04568 18.1804C9.09498 19.2217 9.33279 20.1442 10.0955 20.9042C10.8583 21.6642 11.7776 21.9021 12.8188 21.9543C13.8919 22.0152 17.1081 22.0152 18.1812 21.9543C19.2224 21.905 20.1446 21.6671 20.9045 20.9042C21.6643 20.1442 21.9021 19.2217 21.9543 18.1804C22.0152 17.1071 22.0152 13.8929 21.9543 12.8196ZM20.568 19.332C20.3418 19.9005 19.9039 20.3386 19.3326 20.5677C18.477 20.9071 16.4469 20.8288 15.5015 20.8288C14.556 20.8288 12.523 20.9042 11.6703 20.5677C11.1019 20.3415 10.664 19.9034 10.4349 19.332C10.0955 18.4762 10.1738 16.4457 10.1738 15.5C10.1738 14.5543 10.0984 12.5209 10.4349 11.668C10.6611 11.0995 11.099 10.6614 11.6703 10.4323C12.5259 10.0929 14.556 10.1712 15.5015 10.1712C16.4469 10.1712 18.4799 10.0958 19.3326 10.4323C19.901 10.6585 20.3389 11.0966 20.568 11.668C20.9074 12.5238 20.8291 14.5543 20.8291 15.5C20.8291 16.4457 20.9074 18.4791 20.568 19.332Z" fill="white"/>
<defs>
<linearGradient id="paint0_linear_747_4079" x1="-2.5" y1="6" x2="27.5" y2="22.5" gradientUnits="userSpaceOnUse">
<stop stop-color="#7C43C2" stop-opacity="0.81"/>
<stop offset="1" stop-color="#FB5245"/>
</linearGradient>
</defs>
</svg>
