<svg width="20" height="20" viewBox="0 0 20 20" fill="none" xmlns="http://www.w3.org/2000/svg">
<path d="M19.009 14.8834C18.9012 15.311 18.8268 15.7535 18.6744 16.1662C17.9716 18.0701 15.8223 19.2935 13.8366 18.9439C11.9551 18.613 10.5606 17.2781 10.1553 15.4114C9.62357 12.9721 11.3155 10.5141 13.7957 10.1237C16.1793 9.74813 18.388 11.2541 18.9124 13.6154C18.9495 13.7901 18.9756 13.9649 19.0053 14.1434C19.009 14.3888 19.009 14.6379 19.009 14.8834ZM15.0749 13.9575C15.0749 13.8719 15.0749 13.805 15.0749 13.7381C15.0749 13.2621 15.0786 12.7861 15.0749 12.3102C15.0712 11.9755 14.8332 11.7338 14.5245 11.7338C14.2122 11.7301 13.9668 11.9718 13.9668 12.3027C13.963 13.039 13.963 13.7752 13.9668 14.5078C13.9705 14.8276 14.1973 15.0656 14.5134 15.0656C15.2608 15.073 16.0082 15.073 16.7556 15.0656C16.9936 15.0618 17.1684 14.9391 17.2576 14.7197C17.4101 14.3553 17.1461 13.9649 16.7333 13.9612C16.1904 13.95 15.6475 13.9575 15.0749 13.9575Z" fill="#7A5DF8"/>
<path d="M4.64451 0C4.9643 0.148739 5.09444 0.401596 5.05354 0.747416C5.02008 1.0263 5.03123 1.32378 4.93455 1.58036C4.75606 2.04517 4.25407 2.29059 3.77438 2.2125C3.27239 2.12697 2.89682 1.75513 2.84104 1.24569C2.81501 1.00027 2.82245 0.751134 2.82989 0.505714C2.84476 0.249139 3.02697 0.111555 3.2352 0C3.70373 0 4.17598 0 4.64451 0Z" fill="#7A5DF8"/>
<path d="M13.5502 0C13.87 0.148739 14.0002 0.401596 13.9593 0.747416C13.9258 1.0263 13.937 1.32378 13.8403 1.58036C13.6618 2.04517 13.1598 2.29059 12.6801 2.2125C12.1781 2.13069 11.8026 1.75513 11.7468 1.24941C11.7207 1.00399 11.7282 0.754853 11.7356 0.509432C11.7505 0.249139 11.9364 0.111555 12.1409 0C12.6132 0 13.0817 0 13.5502 0Z" fill="#7A5DF8"/>
<path d="M9.04724 15.618C8.9989 15.6218 8.95799 15.6255 8.91709 15.6255C6.53726 15.6255 4.15371 15.6292 1.77388 15.6218C1.06736 15.6218 0.513311 15.3168 0.197239 14.6773C0.0856848 14.4467 0.0150335 14.1678 0.0150335 13.915C0.000159576 11.1707 0.00759655 8.43392 0.00759655 5.6934C0.00759655 5.65621 0.011315 5.62275 0.0150335 5.57812C5.58904 5.57812 11.1556 5.57812 16.7333 5.57812C16.7333 6.84613 16.7333 8.11785 16.7333 9.39701C14.6845 8.61241 12.7471 8.80577 11.0292 10.1965C9.31497 11.5835 8.71629 13.4316 9.04724 15.618ZM3.95291 6.71598C3.59965 6.71598 3.2464 6.71598 2.89686 6.71598C2.52129 6.7197 2.26844 6.94653 2.27215 7.27747C2.27587 7.60098 2.52501 7.82781 2.88942 7.82781C3.5885 7.83153 4.28757 7.82781 4.98665 7.82781C5.36222 7.82781 5.61507 7.59726 5.61135 7.26632C5.60764 6.93537 5.3585 6.71598 4.97549 6.71598C4.63339 6.71598 4.29501 6.71598 3.95291 6.71598ZM8.39278 7.83153C8.74604 7.83153 9.09929 7.83525 9.44883 7.83153C9.80953 7.82781 10.0587 7.60098 10.0587 7.27375C10.0587 6.95025 9.80953 6.7197 9.44883 6.7197C8.74232 6.71598 8.03953 6.71598 7.33301 6.7197C6.97232 6.7197 6.72318 6.95025 6.72318 7.27747C6.72318 7.60098 6.97232 7.83153 7.33301 7.83525C7.68999 7.83153 8.03953 7.83153 8.39278 7.83153ZM12.8624 6.71598C12.5091 6.71598 12.1559 6.71598 11.8064 6.71598C11.4308 6.7197 11.1779 6.94653 11.1816 7.27747C11.1854 7.60098 11.4345 7.82781 11.7989 7.82781C12.498 7.83153 13.1971 7.82781 13.8961 7.82781C14.2717 7.82781 14.5246 7.59726 14.5208 7.26632C14.5171 6.93537 14.268 6.71598 13.885 6.71598C13.5392 6.71598 13.2008 6.71598 12.8624 6.71598ZM3.93432 10.0589C4.28757 10.0589 4.64083 10.0589 4.99037 10.0589C5.35478 10.0552 5.60392 9.83207 5.60392 9.50485C5.60764 9.18134 5.35478 8.94707 4.9978 8.94335C4.29129 8.93964 3.5885 8.93964 2.88199 8.94335C2.51757 8.94335 2.26844 9.17018 2.26844 9.49369C2.26472 9.8172 2.51757 10.0515 2.87455 10.0552C3.23152 10.0589 3.58478 10.0589 3.93432 10.0589ZM8.37419 10.0589C8.73116 10.0589 9.09186 10.0626 9.44883 10.0589C9.80953 10.0552 10.0587 9.82835 10.0587 9.50113C10.0587 9.17762 9.80953 8.94707 9.44883 8.94335C8.74232 8.93964 8.03953 8.93964 7.33301 8.94335C6.97232 8.94335 6.72318 9.1739 6.72318 9.50113C6.72318 9.82464 6.97232 10.0552 7.33301 10.0589C7.68255 10.0589 8.02837 10.0589 8.37419 10.0589ZM3.95663 11.1707C3.59965 11.1707 3.23896 11.167 2.88199 11.1707C2.52129 11.1744 2.27215 11.405 2.27587 11.7285C2.27959 12.052 2.52873 12.2788 2.88942 12.2826C3.59594 12.2863 4.29873 12.2863 5.00524 12.2826C5.36593 12.2826 5.61507 12.0483 5.61135 11.7248C5.60764 11.4013 5.3585 11.1744 4.9978 11.1707C4.64827 11.1707 4.30245 11.1707 3.95663 11.1707Z" fill="#7A5DF8"/>
<path d="M15.086 1.12481C15.9561 1.15456 16.6069 1.74208 16.7184 2.58618C16.7333 2.69773 16.737 2.80929 16.7407 2.91712C16.7444 3.42284 16.7407 3.92855 16.7407 4.44542C11.1593 4.44542 5.59643 4.44542 0.0298579 4.44542C0.0224209 4.43798 0.0112655 4.43055 0.0112655 4.41939C0.0112655 3.85046 -0.0184824 3.28153 0.0187024 2.71261C0.0744797 1.79786 0.7624 1.162 1.70689 1.12109C1.74408 1.89826 2.06387 2.5304 2.72204 2.9729C3.15339 3.26294 3.63307 3.38193 4.14994 3.32987C5.19483 3.22948 6.12074 2.39653 6.17651 1.12481C7.64903 1.12481 9.12527 1.12481 10.6164 1.12481C10.6499 1.83504 10.925 2.43372 11.4977 2.87622C11.929 3.21088 12.4236 3.35962 12.9702 3.33359C13.8701 3.29641 14.9893 2.61221 15.086 1.12481Z" fill="#7A5DF8"/>
</svg>
