<svg width="15" height="15" viewBox="0 0 15 15" fill="none" xmlns="http://www.w3.org/2000/svg">
<path fill-rule="evenodd" clip-rule="evenodd" d="M7.49976 0C3.36044 0 -0.000244141 3.36068 -0.000244141 7.5C-0.000244141 11.6393 3.36044 15 7.49976 15C11.6391 15 14.9998 11.6393 14.9998 7.5C14.9998 3.36068 11.6391 0 7.49976 0ZM6.81794 3.40909V7.5C6.81794 7.87636 7.12339 8.18182 7.49976 8.18182H10.9088C11.2852 8.18182 11.5907 7.87636 11.5907 7.5C11.5907 7.12364 11.2852 6.81818 10.9088 6.81818H8.18157V3.40909C8.18157 3.03273 7.87612 2.72727 7.49976 2.72727C7.12339 2.72727 6.81794 3.03273 6.81794 3.40909Z" fill="#7A5DF8"/>
</svg>
