<svg width="246" height="274" viewBox="0 0 246 274" fill="none" xmlns="http://www.w3.org/2000/svg">
<path d="M233.9 258.231C232.37 258.769 230.727 258.904 229.13 258.622C227.533 258.341 226.035 257.653 224.781 256.625C221.587 253.944 220.584 249.528 219.771 245.438L217.361 233.342L222.406 236.816C226.035 239.315 229.745 241.893 232.257 245.512C234.77 249.131 235.867 254.072 233.848 257.987" fill="#E6E6E6"/>
<path d="M233.469 272.875C233.98 269.155 234.505 265.388 234.147 261.628C233.829 258.289 232.81 255.028 230.736 252.354C229.635 250.937 228.296 249.723 226.778 248.766C226.382 248.517 226.018 249.144 226.412 249.393C229.038 251.053 231.07 253.504 232.213 256.393C233.476 259.605 233.679 263.108 233.46 266.52C233.328 268.584 233.049 270.634 232.768 272.682C232.745 272.775 232.759 272.872 232.806 272.955C232.853 273.038 232.93 273.1 233.021 273.128C233.114 273.153 233.213 273.141 233.297 273.093C233.38 273.046 233.442 272.967 233.468 272.875L233.469 272.875Z" fill="#F2F2F2"/>
<path d="M215.182 211.09H4.09192V0H215.182V211.09Z" fill="white"/>
<path d="M215.182 211.09H4.09192V0H215.182V211.09ZM7.21073 207.971H212.063V3.11884H7.21073V207.971Z" fill="#E5E5E5"/>
<path d="M177.787 33.0254H86.3764V35.8729H177.787V33.0254Z" fill="#E5E5E5"/>
<path d="M177.787 40.4277H86.3764V43.2752H177.787V40.4277Z" fill="#E5E5E5"/>
<path d="M177.787 47.832H86.3764V50.6795H177.787V47.832Z" fill="#E5E5E5"/>
<path d="M177.787 96.5957H86.3764V99.4432H177.787V96.5957Z" fill="#E5E5E5"/>
<path d="M177.787 104.002H86.3764V106.849H177.787V104.002Z" fill="#E5E5E5"/>
<path d="M177.787 111.404H86.3764V114.252H177.787V111.404Z" fill="#E5E5E5"/>
<path d="M177.787 160.168H86.3764V163.015H177.787V160.168Z" fill="#E5E5E5"/>
<path d="M177.787 167.57H86.3764V170.418H177.787V167.57Z" fill="#E5E5E5"/>
<path d="M177.787 174.977H86.3764V177.824H177.787V174.977Z" fill="#E5E5E5"/>
<path d="M49.7818 55.7116C48.2202 54.8887 46.5902 54.2027 44.91 53.6614L44.6958 51.2915L36.0073 50.3555L34.9031 53.3846L31.785 54.5547C31.6734 54.597 31.5672 54.6523 31.4686 54.7195H31.4652C31.2912 54.8371 31.143 54.989 31.0297 55.1658C30.9163 55.3426 30.8402 55.5407 30.806 55.7479C30.7727 55.9539 30.7806 56.1645 30.8292 56.3675L30.994 57.0432C31.2312 57.185 31.4752 57.3201 31.719 57.4487L31.874 57.5278C32.23 57.7124 32.5926 57.887 32.965 58.0486C33.0408 58.0815 33.1232 58.1145 33.199 58.1474C33.2056 58.1507 33.2089 58.1507 33.2155 58.154C33.3903 58.2266 33.5649 58.2958 33.7429 58.3617C34.3276 58.585 34.9239 58.7765 35.5293 58.9352C37.0745 59.347 38.6668 59.5554 40.2659 59.5549C40.8493 59.5549 41.4261 59.5285 41.9963 59.4725C43.2992 59.3522 44.5855 59.0925 45.833 58.6979C45.8363 58.6979 45.8396 58.6946 45.8429 58.6946C46.6309 58.4435 47.4008 58.1385 48.1469 57.7816C48.1501 57.7783 48.1567 57.7783 48.1601 57.775C48.3281 57.6959 48.4897 57.6102 48.6545 57.5278L48.7336 57.4882C48.8654 57.419 48.9973 57.3498 49.1291 57.2773C49.4588 57.096 49.7818 56.9048 50.1014 56.7005C50.1904 56.6477 50.2762 56.5917 50.3652 56.5324C50.4904 56.4499 50.6156 56.3642 50.7376 56.2752C50.431 56.0775 50.1114 55.8896 49.7818 55.7116Z" fill="#3F3D56"/>
<path d="M33.4767 57.1744L32.9329 54.7188H31.5123C31.4979 54.7189 31.4836 54.72 31.4695 54.722H31.4661C30.9555 54.7653 30.4639 54.9352 30.0356 55.2165C29.7452 55.4019 29.4869 55.6335 29.271 55.902C29.6928 56.2218 30.1312 56.5184 30.5828 56.8019L30.6026 56.8118C30.7311 56.8909 30.863 56.97 30.9949 57.0458C31.2321 57.1875 31.4761 57.3227 31.7199 57.4512L31.8749 57.5303C32.2309 57.7149 32.5935 57.8896 32.9659 58.0511C33.0417 58.0841 33.1241 58.117 33.1999 58.15C33.2065 58.1533 33.2098 58.1533 33.2164 58.1566C33.3911 58.2291 33.5658 58.2983 33.7438 58.3642L33.4767 57.1744Z" fill="#3F3D56"/>
<path d="M40.0115 48.8588C43.4674 48.8588 46.269 46.0572 46.269 42.6013C46.269 39.1453 43.4674 36.3438 40.0115 36.3438C36.5556 36.3438 33.754 39.1453 33.754 42.6013C33.754 46.0572 36.5556 48.8588 40.0115 48.8588Z" fill="#FFB8B8"/>
<path d="M35.8101 39.5548C36.4578 40.3214 37.5541 40.5377 38.5653 40.6264C40.9296 40.757 43.3006 40.5634 45.6123 40.051C45.7556 41.4394 45.365 42.9364 46.1828 44.0784C46.5661 42.6958 46.789 41.2736 46.8471 39.84C46.9081 39.2249 46.8278 38.6039 46.6123 38.0246C46.497 37.7343 46.3026 37.4821 46.0512 37.2968C45.7998 37.1114 45.5014 37.0003 45.19 36.9761C45.6562 36.6224 46.2023 36.3889 46.78 36.2963L44.7931 35.2978L45.3034 34.774L41.7062 34.5538L42.7481 33.8919C41.18 33.6765 39.5936 33.6264 38.015 33.7425C37.2773 33.7429 36.5537 33.944 35.9216 34.3244C35.3277 34.7491 34.9845 35.5933 35.3532 36.2169C34.8916 36.2927 34.457 36.485 34.0905 36.7758C33.7241 37.0666 33.4379 37.4461 33.2592 37.8784C33.0332 38.5655 32.9786 39.2975 33.1002 40.0106C33.2357 41.1546 33.5016 42.2794 33.8927 43.3631L35.8101 39.5548Z" fill="#2F2E41"/>
<path d="M57.6068 35.8161C56.7288 33.2938 55.3113 30.9935 53.4529 29.0754C51.5946 27.1573 49.3402 25.6677 46.847 24.7104C44.3538 23.7531 41.6818 23.3512 39.0173 23.5327C36.3528 23.7142 33.7599 24.4747 31.4196 25.7612C29.0792 27.0477 27.0476 28.8293 25.4665 30.9816C23.8854 33.1339 22.7928 35.6053 22.265 38.2232C21.7371 40.8412 21.7867 43.5428 22.4102 46.1397C23.0337 48.7366 24.2162 51.1662 25.8752 53.2591C26.04 53.4667 26.2114 53.6744 26.3862 53.8754C26.3994 53.8886 26.4092 53.9018 26.4224 53.915C26.852 54.41 27.3087 54.881 27.7902 55.3257C27.9156 55.4411 28.0474 55.5597 28.1792 55.6718C28.4297 55.896 28.6869 56.1102 28.9539 56.3145C29.0593 56.3969 29.1615 56.4794 29.2703 56.5585C29.6921 56.8782 30.1305 57.1748 30.5821 57.4583L30.6019 57.4682C30.7303 57.5473 30.8623 57.6264 30.9941 57.7022C31.2314 57.8439 31.4754 57.9791 31.7192 58.1076L31.8742 58.1867C32.2302 58.3713 32.5928 58.546 32.9652 58.7075C33.041 58.7405 33.1234 58.7734 33.1992 58.8064C33.2058 58.8097 33.209 58.8097 33.2156 58.813C33.3904 58.8855 33.565 58.9547 33.743 59.0207C34.3277 59.244 34.9241 59.4354 35.5295 59.5942C37.0746 60.006 38.6669 60.2143 40.266 60.2139C40.8495 60.2139 41.4263 60.1875 41.9965 60.1314C43.2994 60.0112 44.5857 59.7515 45.8332 59.3569C45.8364 59.3569 45.8398 59.3536 45.843 59.3536C46.6311 59.1025 47.4009 58.7974 48.1471 58.4405C48.1503 58.4372 48.1569 58.4372 48.1603 58.434C48.3283 58.3548 48.4899 58.2692 48.6547 58.1867L48.7337 58.1472C48.8655 58.078 48.9975 58.0087 49.1293 57.9362C49.4589 57.7549 49.7819 57.5638 50.1016 57.3594C50.1906 57.3067 50.2764 57.2506 50.3654 57.1913C50.4906 57.1089 50.6158 57.0232 50.7378 56.9342C50.8992 56.8221 51.0608 56.7068 51.219 56.5881C51.2684 56.5519 51.3212 56.5156 51.3706 56.4761C54.4586 54.1322 56.7252 50.8707 57.8455 47.1593C58.9658 43.4479 58.8822 39.4771 57.6068 35.8161V35.8161ZM50.7642 55.6751C50.6554 55.7608 50.5434 55.8432 50.4312 55.919C50.3224 56.0014 50.2138 56.0805 50.1016 56.153C50.006 56.2223 49.9104 56.2882 49.8115 56.3508L49.7819 56.3706C49.7094 56.42 49.6369 56.4661 49.5643 56.5123C49.2907 56.6837 49.0139 56.8485 48.7337 57.0067L48.6447 57.0562C48.5195 57.1254 48.3943 57.1913 48.2691 57.2573C48.2525 57.2671 48.2327 57.2737 48.2163 57.2836L48.1965 57.2935C48.0383 57.3759 47.8767 57.455 47.7153 57.5308C47.092 57.831 46.4502 58.0908 45.7936 58.3087C45.7079 58.3384 45.6222 58.368 45.5366 58.3944C44.3558 58.77 43.138 59.0175 41.9043 59.1327C41.3637 59.1822 40.8165 59.2085 40.266 59.2085C38.7536 59.2117 37.2474 59.0144 35.7867 58.6218C35.0371 58.4262 34.3024 58.1772 33.5882 57.8769C33.5518 57.8604 33.5123 57.8473 33.476 57.8308C33.4366 57.8143 33.4002 57.8011 33.364 57.7846C33.3244 57.7681 33.2882 57.7517 33.2486 57.7319C32.9388 57.5967 32.6322 57.4484 32.3324 57.2935L32.1874 57.2177C31.8214 57.0265 31.4622 56.8222 31.1128 56.6046C31.0105 56.542 30.9051 56.4761 30.8062 56.4068C30.7799 56.3904 30.7568 56.3739 30.7304 56.3574C30.4963 56.2025 30.2623 56.041 30.0349 55.8729C29.8801 55.7575 29.7251 55.6421 29.5735 55.5235C29.3197 55.3323 29.0757 55.1279 28.8385 54.917C28.7133 54.8115 28.5913 54.6962 28.4727 54.5874C28.0053 54.1559 27.5629 53.6981 27.1476 53.2162C27.0092 53.058 26.874 52.8998 26.7454 52.735C26.7162 52.7024 26.6887 52.6683 26.663 52.6328C24.5214 49.9304 23.2333 46.6513 22.9629 43.2138C22.6924 39.7763 23.452 36.3362 25.1447 33.3321C26.8373 30.3281 29.3864 27.8963 32.4667 26.3468C35.5471 24.7973 39.0192 24.2004 42.4401 24.6323C45.8611 25.0641 49.0759 26.5051 51.6746 28.7714C54.2733 31.0378 56.1381 34.0268 57.0311 37.3572C57.9242 40.6877 57.805 44.2086 56.6889 47.4711C55.5727 50.7336 53.5101 53.5896 50.7642 55.6751L50.7642 55.6751Z" fill="#3F3D56"/>
<path d="M57.6068 99.3883C56.7288 96.8661 55.3112 94.5657 53.4529 92.6477C51.5945 90.7296 49.3402 89.24 46.847 88.2827C44.3538 87.3254 41.6817 86.9235 39.0173 87.1049C36.3528 87.2864 33.7599 88.0469 31.4195 89.3335C29.0792 90.62 27.0476 92.4015 25.4665 94.5538C23.8854 96.7062 22.7928 99.1775 22.265 101.795C21.7371 104.413 21.7867 107.115 22.4102 109.712C23.0337 112.309 24.2162 114.738 25.8752 116.831C26.04 117.039 26.2114 117.247 26.386 117.448C26.3992 117.461 26.409 117.474 26.4222 117.487C26.852 117.982 27.3087 118.453 27.7902 118.898C27.9154 119.013 28.0473 119.132 28.1791 119.244C28.4296 119.468 28.6867 119.682 28.9537 119.887C29.475 120.298 30.0186 120.68 30.5819 121.031L30.6017 121.04C30.9676 121.268 31.34 121.479 31.7192 121.68L31.874 121.759C32.23 121.944 32.5926 122.118 32.965 122.28C33.0408 122.313 33.1232 122.346 33.199 122.379C33.2056 122.382 33.209 122.382 33.2156 122.385C33.9681 122.698 34.7412 122.959 35.5295 123.166C37.0746 123.578 38.6668 123.787 40.2659 123.786C40.8493 123.786 41.4261 123.76 41.9963 123.704C43.2992 123.583 44.5855 123.324 45.833 122.929C45.8364 122.929 45.8396 122.926 45.8428 122.926C46.6309 122.675 47.4008 122.37 48.1469 122.013C48.1501 122.009 48.1569 122.009 48.1601 122.006C48.3281 121.927 48.4897 121.841 48.6545 121.759L48.7337 121.719C48.8655 121.65 48.9973 121.581 49.1291 121.508C49.4587 121.327 49.7818 121.136 50.1015 120.932C50.1905 120.879 50.2762 120.823 50.3652 120.764C50.6552 120.572 50.942 120.368 51.2188 120.16C51.2684 120.124 51.321 120.088 51.3706 120.048C54.4585 117.704 56.725 114.443 57.8453 110.731C58.9656 107.02 58.8821 103.049 57.6068 99.3883V99.3883Z" fill="white"/>
<path d="M46.3256 112.994C47.8454 112.994 49.0775 111.762 49.0775 110.242C49.0775 108.722 47.8454 107.49 46.3256 107.49C44.8057 107.49 43.5737 108.722 43.5737 110.242C43.5737 111.762 44.8057 112.994 46.3256 112.994Z" fill="#2F2E41"/>
<path d="M47.0926 107.565C47.5689 107.565 48.0371 107.688 48.4513 107.924C48.8655 108.159 49.2116 108.497 49.4557 108.906C49.6999 109.315 49.8337 109.781 49.8441 110.257C49.8546 110.733 49.7412 111.204 49.5152 111.623C49.7538 111.324 49.9275 110.98 50.0253 110.61C50.1232 110.241 50.143 109.855 50.0836 109.478C50.0242 109.1 49.8868 108.739 49.6802 108.418C49.4736 108.096 49.2023 107.822 48.8836 107.611C48.5649 107.4 48.2057 107.258 47.8291 107.194C47.4525 107.129 47.0665 107.144 46.6959 107.237C46.3253 107.33 45.9782 107.499 45.6766 107.734C45.375 107.969 45.1256 108.263 44.9442 108.6C45.2015 108.277 45.5283 108.016 45.9003 107.837C46.2723 107.658 46.68 107.565 47.0929 107.565L47.0926 107.565Z" fill="#2F2E41"/>
<path d="M41.1835 110.236C45.6482 110.236 49.2675 106.617 49.2675 102.152C49.2675 97.6877 45.6482 94.0684 41.1835 94.0684C36.7188 94.0684 33.0995 97.6877 33.0995 102.152C33.0995 106.617 36.7188 110.236 41.1835 110.236Z" fill="#2F2E41"/>
<path d="M50.4319 118.528V120.274C50.1121 120.479 49.7891 120.67 49.4595 120.851C49.3277 120.924 49.1959 120.993 49.064 121.062L48.9849 121.102C48.8201 121.184 48.6585 121.27 48.4904 121.349C48.4872 121.352 48.4805 121.352 48.4772 121.356C47.7311 121.712 46.9613 122.018 46.1732 122.269C46.17 122.269 46.1668 122.272 46.1634 122.272C44.9158 122.667 43.6296 122.926 42.3267 123.046C41.7564 123.103 41.1796 123.129 40.5962 123.129C38.9972 123.129 37.4049 122.921 35.8598 122.509C35.0716 122.302 34.2985 122.041 33.546 121.728C33.5394 121.725 33.536 121.725 33.5294 121.721C33.4536 121.688 33.3712 121.656 33.2954 121.623C32.9229 121.461 32.5603 121.286 32.2043 121.102L32.0495 121.023C31.6703 120.822 31.2979 120.611 30.9321 120.383L30.9123 120.373C30.3489 120.022 29.8054 119.64 29.284 119.23C29.017 119.025 28.76 118.811 28.5094 118.587C28.3776 118.475 28.2458 118.356 28.1206 118.241C27.639 117.796 27.1823 117.325 26.7526 116.83C26.8096 116.487 26.8934 116.148 27.0032 115.818L27.0064 115.815C27.0261 115.759 27.0492 115.703 27.0756 115.65C27.0938 115.603 27.1147 115.556 27.1382 115.512C27.7282 114.407 28.7962 114.134 30.1213 114.074C30.8695 114.041 31.6967 114.078 32.5703 114.068C33.0317 114.065 33.5096 114.048 33.9876 114.005C37.0035 113.732 36.4565 111.952 36.5915 110.993C36.7267 110.063 37.5639 110.867 37.6199 110.92L37.6231 110.923C39.3298 111.722 41.2181 112.053 43.0947 111.883C43.4177 111.843 43.7407 111.82 44.0637 111.81C44.9142 111.8 44.7296 112.044 44.4363 112.245C44.2939 112.339 44.1453 112.423 43.9913 112.496C43.9913 112.496 43.8561 113.32 43.7177 114.552C43.5859 115.732 45.847 116.286 46.0348 116.329C46.0387 116.332 46.0434 116.333 46.048 116.332C46.8737 116.118 47.7431 116.141 48.5565 116.398H48.5597C49.0244 116.569 49.4391 116.853 49.766 117.225C50.093 117.597 50.3219 118.045 50.4319 118.528Z" fill="#7A5DF8"/>
<path d="M33.5788 120.645C33.5788 120.889 33.5723 121.123 33.5624 121.344C33.5591 121.476 33.5525 121.604 33.5459 121.726C33.5393 121.723 33.536 121.723 33.5294 121.72C33.4536 121.687 33.3712 121.654 33.2953 121.621C32.9229 121.459 32.5603 121.284 32.2043 121.1L32.0495 121.021C31.6703 120.82 31.2979 120.609 30.9321 120.381C30.9419 120.266 30.9585 120.151 30.9749 120.035C31.0111 119.781 31.0409 119.524 31.0607 119.271C31.1902 117.487 30.8671 115.701 30.1212 114.076V114.073C30.0552 113.941 30.0158 113.868 30.0158 113.868C30.0158 113.868 30.9749 113.044 32.3427 113.868C32.4301 113.92 32.5072 113.987 32.5703 114.066C33.3943 115.038 33.6184 118.308 33.5788 120.645Z" fill="#2F2E41"/>
<path d="M48.5459 120.197C48.5327 120.566 48.5129 120.952 48.4899 121.344V121.347C48.4867 121.351 48.4799 121.351 48.4767 121.354C47.7306 121.711 46.9607 122.016 46.1726 122.267C46.1694 122.267 46.1662 122.27 46.1628 122.27L46.1266 121.344L46.1232 121.222L45.9486 116.713C45.9439 116.611 45.96 116.509 45.9958 116.413C46.0316 116.318 46.0865 116.23 46.157 116.156C46.2275 116.082 46.3123 116.023 46.4062 115.983C46.5002 115.943 46.6012 115.922 46.7034 115.922H48.3745C48.4569 115.922 48.5163 116.09 48.5559 116.393V116.397C48.6369 117.662 48.6336 118.932 48.5459 120.197Z" fill="#2F2E41"/>
<path d="M35.8399 104.618C36.0669 104.618 36.2509 104.281 36.2509 103.865C36.2509 103.449 36.0669 103.111 35.8399 103.111C35.6129 103.111 35.4289 103.449 35.4289 103.865C35.4289 104.281 35.6129 104.618 35.8399 104.618Z" fill="#A0616A"/>
<path d="M46.3905 104.618C46.6175 104.618 46.8015 104.281 46.8015 103.865C46.8015 103.449 46.6175 103.111 46.3905 103.111C46.1635 103.111 45.9795 103.449 45.9795 103.865C45.9795 104.281 46.1635 104.618 46.3905 104.618Z" fill="#A0616A"/>
<path d="M51.5491 119.503C51.2723 119.711 50.9855 119.915 50.6955 120.106C50.6065 120.165 50.5209 120.221 50.4319 120.274C50.1121 120.479 49.7891 120.67 49.4595 120.851C49.3276 120.924 49.1958 120.993 49.064 121.062V117.43C49.064 117.43 49.5913 117.852 50.4319 118.554C50.5373 118.643 50.6461 118.735 50.7615 118.834C51.0053 119.038 51.2691 119.262 51.5491 119.503Z" fill="#7A5DF8"/>
<path d="M57.6068 99.3883C56.7288 96.8661 55.3112 94.5657 53.4529 92.6477C51.5945 90.7296 49.3402 89.24 46.847 88.2827C44.3538 87.3254 41.6817 86.9235 39.0173 87.1049C36.3528 87.2864 33.7599 88.0469 31.4195 89.3335C29.0792 90.62 27.0476 92.4015 25.4665 94.5538C23.8854 96.7062 22.7928 99.1775 22.265 101.795C21.7371 104.413 21.7867 107.115 22.4102 109.712C23.0337 112.309 24.2162 114.738 25.8752 116.831C26.04 117.039 26.2114 117.247 26.386 117.448C26.3992 117.461 26.409 117.474 26.4222 117.487C26.852 117.982 27.3087 118.453 27.7902 118.898C27.9154 119.013 28.0473 119.132 28.1791 119.244C28.4296 119.468 28.6867 119.682 28.9537 119.887C29.475 120.298 30.0186 120.68 30.5819 121.031L30.6017 121.04C30.9676 121.268 31.34 121.479 31.7192 121.68L31.874 121.759C32.23 121.944 32.5926 122.118 32.965 122.28C33.0408 122.313 33.1232 122.346 33.199 122.379C33.2056 122.382 33.209 122.382 33.2156 122.385C33.9681 122.698 34.7412 122.959 35.5295 123.166C37.0746 123.578 38.6668 123.787 40.2659 123.786C40.8493 123.786 41.4261 123.76 41.9963 123.704C43.2992 123.583 44.5855 123.324 45.833 122.929C45.8364 122.929 45.8396 122.926 45.8428 122.926C46.6309 122.675 47.4008 122.37 48.1469 122.013C48.1501 122.009 48.1569 122.009 48.1601 122.006C48.3281 121.927 48.4897 121.841 48.6545 121.759L48.7337 121.719C48.8655 121.65 48.9973 121.581 49.1291 121.508C49.4587 121.327 49.7818 121.136 50.1015 120.932C50.1905 120.879 50.2762 120.823 50.3652 120.764C50.6552 120.572 50.942 120.368 51.2188 120.16C51.2684 120.124 51.321 120.088 51.3706 120.048C54.4585 117.704 56.725 114.443 57.8453 110.731C58.9656 107.02 58.8821 103.049 57.6068 99.3883V99.3883ZM50.764 119.247C50.6552 119.333 50.5432 119.415 50.4312 119.491C50.3224 119.574 50.2136 119.653 50.1016 119.725C50.006 119.794 49.9104 119.86 49.8114 119.923C49.729 119.979 49.6466 120.032 49.5642 120.085C49.2907 120.256 49.0139 120.421 48.7337 120.579L48.6445 120.628C48.5193 120.698 48.3941 120.764 48.2689 120.829C48.2523 120.839 48.2325 120.846 48.2161 120.856L48.1963 120.866C48.0381 120.948 47.8767 121.027 47.7151 121.103C47.0919 121.403 46.45 121.663 45.7935 121.881C45.7078 121.911 45.6221 121.94 45.5364 121.967C44.3556 122.342 43.1378 122.59 41.9041 122.705C41.3635 122.754 40.8163 122.781 40.2659 122.781C38.7534 122.784 37.2472 122.587 35.7865 122.194C35.0369 121.998 34.3022 121.749 33.588 121.449C33.5122 121.419 33.4364 121.386 33.3638 121.357C33.3244 121.34 33.288 121.324 33.2484 121.304C32.9386 121.169 32.6322 121.021 32.3322 120.866L32.1872 120.79C31.8214 120.599 31.462 120.394 31.1126 120.177C30.9841 120.098 30.8555 120.015 30.7303 119.93C30.3347 119.669 29.9491 119.389 29.5733 119.096C29.3195 118.905 29.0757 118.7 28.8383 118.489C28.7131 118.384 28.5911 118.268 28.4725 118.16C28.0051 117.728 27.5628 117.27 27.1474 116.788C27.009 116.63 26.8738 116.472 26.7452 116.307C26.716 116.275 26.6885 116.24 26.6628 116.205C24.5212 113.503 23.2331 110.224 22.9627 106.786C22.6923 103.349 23.4518 99.9084 25.1445 96.9044C26.8372 93.9003 29.3862 91.4685 32.4666 89.919C35.5469 88.3696 39.019 87.7727 42.44 88.2045C45.8609 88.6364 49.0757 90.0773 51.6744 92.3436C54.2731 94.61 56.1379 97.599 57.0309 100.929C57.924 104.26 57.8048 107.781 56.6887 111.043C55.5725 114.306 53.5099 117.162 50.764 119.247V119.247Z" fill="#3F3D56"/>
<path d="M40.3701 177.252C44.3434 177.252 47.5643 174.031 47.5643 170.058C47.5643 166.084 44.3434 162.863 40.3701 162.863C36.3968 162.863 33.1758 166.084 33.1758 170.058C33.1758 174.031 36.3968 177.252 40.3701 177.252Z" fill="#2F2E41"/>
<path d="M34.7551 166.177C35.9176 165.015 36.1532 163.366 35.2813 162.494C34.4094 161.622 32.7601 161.857 31.5976 163.02C30.435 164.183 30.1994 165.832 31.0713 166.704C31.9432 167.576 33.5925 167.34 34.7551 166.177Z" fill="#2F2E41"/>
<path d="M47.8684 163.891C48.3527 162.757 47.5197 161.314 46.0078 160.668C44.4958 160.023 42.8775 160.418 42.3931 161.552C41.9087 162.686 42.7417 164.129 44.2537 164.775C45.7656 165.421 47.384 165.025 47.8684 163.891Z" fill="#2F2E41"/>
<path d="M48.975 184.01L48.1273 182.677C47.7677 181.873 47.1043 181.245 46.2824 180.93C45.4605 180.614 44.5472 180.638 43.7424 180.994C42.9377 181.351 42.3071 182.012 41.9888 182.833C41.6705 183.654 41.6905 184.567 42.0443 185.373L42.2853 186.238L42.5597 187.218C43.6701 187.078 44.7659 186.839 45.8338 186.503C45.8369 186.503 45.8399 186.502 45.8421 186.499C46.6314 186.249 47.4021 185.944 48.1482 185.585C48.1523 185.581 48.1564 185.581 48.1606 185.577C48.3268 185.498 48.4889 185.415 48.655 185.332C48.6822 185.32 48.7085 185.306 48.734 185.29C48.8668 185.224 48.9999 185.153 49.1288 185.082C49.2617 185.012 49.3904 184.937 49.5151 184.858L48.975 184.01Z" fill="#CACACA"/>
<path d="M40.5979 177.879C43.97 177.879 46.7036 175.146 46.7036 171.774C46.7036 168.402 43.97 165.668 40.5979 165.668C37.2259 165.668 34.4922 168.402 34.4922 171.774C34.4922 175.146 37.2259 177.879 40.5979 177.879Z" fill="#FFB6B6"/>
<path d="M49.4166 183.749C48.7431 182.629 47.9071 181.615 46.9359 180.741C46.2707 180.146 45.4098 179.818 44.5178 179.818H35.9168C35.4212 179.818 34.9308 179.92 34.4759 180.116C34.0211 180.313 33.6114 180.601 33.2723 180.963C32.9331 181.324 32.6716 181.751 32.504 182.217C32.3364 182.684 32.2662 183.18 32.2978 183.674C32.3165 183.953 32.3668 184.229 32.4475 184.497C32.5088 184.691 32.5852 184.88 32.6759 185.062L33.0997 185.91C33.133 185.922 33.1663 185.939 33.1994 185.951C33.2077 185.955 33.2119 185.955 33.216 185.959C33.3905 186.03 33.5651 186.101 33.7437 186.167C34.3284 186.391 34.9249 186.582 35.5305 186.741C36.5053 187.002 37.5004 187.182 38.5053 187.277C39.0912 187.331 39.6772 187.36 40.2671 187.36C40.8531 187.36 41.4264 187.331 41.9998 187.277C42.1868 187.26 42.3737 187.239 42.5607 187.218C43.6712 187.078 44.7669 186.839 45.8348 186.504C45.838 186.503 45.8409 186.502 45.8432 186.5C46.6325 186.25 47.4032 185.944 48.1493 185.586C48.1534 185.581 48.1574 185.581 48.1617 185.577C48.3279 185.498 48.4899 185.415 48.6561 185.332C48.6833 185.32 48.7096 185.306 48.735 185.291C48.8679 185.224 49.001 185.153 49.1298 185.083C49.2627 185.012 49.3915 184.937 49.5161 184.858C49.6492 184.788 49.7738 184.709 49.9026 184.63C49.7448 184.318 49.5827 184.027 49.4166 183.749Z" fill="#CACACA"/>
<path d="M37.4746 180.932C36.6786 180.56 35.7677 180.518 34.9408 180.815C34.114 181.113 33.4385 181.725 33.0621 182.519L32.2974 183.675L31.9318 184.227L31.3751 185.067C31.4914 185.129 31.6036 185.191 31.72 185.254L31.8736 185.332C32.2311 185.515 32.5924 185.69 32.9665 185.852C33.0079 185.873 33.0538 185.889 33.0994 185.91C33.1327 185.922 33.166 185.939 33.199 185.952C33.2073 185.956 33.2116 185.956 33.2157 185.96C33.3901 186.031 33.5648 186.101 33.7433 186.168C34.328 186.391 34.9245 186.583 35.5301 186.741C36.505 187.003 37.5001 187.182 38.505 187.277L38.7959 186.292L39.0785 185.353C39.451 184.554 39.4913 183.64 39.1906 182.811C38.8899 181.982 38.2728 181.307 37.4746 180.932Z" fill="#CACACA"/>
<path d="M34.1823 167.934C35.5775 168.895 37.2335 169.407 38.928 169.4C38.3236 169.819 37.6355 170.103 36.9111 170.23C39.1641 170.713 41.4925 170.726 43.7508 170.269C44.2528 170.188 44.7371 170.022 45.1826 169.777C45.4046 169.653 45.5981 169.483 45.7503 169.28C45.9026 169.076 46.0103 168.843 46.0664 168.595C46.2165 167.737 45.5485 166.959 44.8543 166.434C43.7914 165.642 42.5659 165.097 41.2665 164.837C39.967 164.578 38.6261 164.61 37.3407 164.932C36.4843 165.105 35.7049 165.545 35.1155 166.19C34.8302 166.518 34.658 166.929 34.6243 167.363C34.5906 167.796 34.6972 168.229 34.9282 168.597L34.1823 167.934Z" fill="#2F2E41"/>
<path d="M57.6089 162.961C56.7312 160.438 55.3137 158.137 53.4553 156.219C51.597 154.301 49.3426 152.811 46.8492 151.853C44.3559 150.896 41.6837 150.494 39.019 150.675C36.3543 150.857 33.7613 151.617 31.4208 152.904C29.0802 154.19 27.0485 155.972 25.4673 158.125C23.8861 160.277 22.7935 162.749 22.2657 165.367C21.7379 167.985 21.7876 170.687 22.4114 173.284C23.0351 175.881 24.2179 178.31 25.8771 180.403C26.039 180.611 26.2137 180.819 26.3882 181.018C26.3982 181.033 26.4093 181.047 26.4215 181.06C26.8518 181.555 27.3095 182.025 27.7926 182.468C27.9171 182.585 28.046 182.705 28.1791 182.817C28.4282 183.042 28.6859 183.254 28.9559 183.457C29.0598 183.54 29.1636 183.624 29.2718 183.702C29.6913 184.022 30.1318 184.317 30.5806 184.604C30.5883 184.604 30.5956 184.607 30.6013 184.612C30.7301 184.691 30.8632 184.77 30.9961 184.845C31.1206 184.92 31.2495 184.995 31.3743 185.065C31.4905 185.128 31.6027 185.19 31.7192 185.252L31.8727 185.331C32.2302 185.514 32.5916 185.689 32.9657 185.851C33.007 185.871 33.0529 185.888 33.0985 185.909C33.1318 185.921 33.1651 185.938 33.1982 185.95C33.2065 185.954 33.2107 185.954 33.2148 185.959C33.3893 186.029 33.5639 186.1 33.7425 186.166C34.3272 186.39 34.9237 186.581 35.5293 186.74C36.5041 187.002 37.4992 187.181 38.5041 187.276C39.09 187.33 39.676 187.359 40.2659 187.359C40.8519 187.359 41.4252 187.33 41.9986 187.276C42.1856 187.259 42.3725 187.238 42.5595 187.218C43.67 187.077 44.7657 186.838 45.8336 186.503C45.8368 186.503 45.8397 186.501 45.842 186.499C46.6313 186.249 47.402 185.944 48.1481 185.585C48.1522 185.581 48.1562 185.581 48.1605 185.576C48.3266 185.497 48.4887 185.414 48.6549 185.331C48.6821 185.319 48.7084 185.305 48.7338 185.29C48.8667 185.223 48.9998 185.153 49.1286 185.082C49.2615 185.011 49.3903 184.936 49.5149 184.858C49.648 184.787 49.7726 184.708 49.9014 184.629C49.968 184.587 50.0344 184.546 50.1009 184.504C50.1924 184.45 50.2753 184.396 50.3668 184.334C50.4914 184.255 50.6162 184.168 50.7365 184.081C50.8986 183.968 51.0607 183.852 51.2185 183.732C51.2717 183.697 51.3231 183.659 51.3723 183.619C54.4579 181.274 56.7228 178.012 57.8429 174.302C58.9631 170.591 58.8812 166.622 57.6089 162.961L57.6089 162.961ZM50.7657 182.817C50.6576 182.905 50.5454 182.988 50.4334 183.063C50.321 183.146 50.2131 183.225 50.1009 183.299C50.0053 183.366 49.9097 183.432 49.8101 183.495C49.8011 183.503 49.7913 183.51 49.7809 183.516C49.7103 183.565 49.6355 183.611 49.5649 183.657C49.515 183.686 49.4653 183.719 49.4154 183.748C49.2699 183.84 49.1244 183.927 48.9749 184.01C48.896 184.06 48.8128 184.106 48.7339 184.151C48.7049 184.168 48.6756 184.184 48.6466 184.201C48.5178 184.272 48.3932 184.334 48.2684 184.401C48.252 184.413 48.2311 184.417 48.2187 184.43C48.211 184.43 48.2036 184.433 48.1978 184.438C48.04 184.521 47.8779 184.6 47.716 184.675C47.0921 184.975 46.4495 185.235 45.7921 185.452C45.7091 185.481 45.6218 185.514 45.5387 185.539C44.479 185.875 43.3895 186.109 42.2852 186.237C42.1607 186.254 42.0318 186.266 41.903 186.279C41.3629 186.328 40.8186 186.353 40.266 186.353C39.7756 186.353 39.2812 186.333 38.7951 186.291C37.7788 186.206 36.7721 186.031 35.7869 185.768C35.037 185.572 34.3024 185.322 33.5889 185.02C33.5514 185.003 33.5141 184.991 33.4767 184.974C33.4352 184.957 33.4019 184.945 33.3646 184.928C33.323 184.912 33.2897 184.895 33.2481 184.874C32.9781 184.758 32.708 184.629 32.4463 184.496C32.4088 184.475 32.3715 184.459 32.3341 184.438L32.1887 184.363C32.1014 184.317 32.0142 184.272 31.931 184.226C31.6526 184.076 31.3783 183.914 31.1126 183.748C31.0128 183.686 30.9048 183.619 30.805 183.553L30.7301 183.503C30.4974 183.345 30.2649 183.187 30.0363 183.017C29.8825 182.901 29.7247 182.788 29.5751 182.668C29.3217 182.477 29.0764 182.273 28.8397 182.061C28.7149 181.957 28.5904 181.841 28.4741 181.733C28.0062 181.302 27.5637 180.844 27.1487 180.362C27.0115 180.204 26.8744 180.046 26.7455 179.88C26.7165 179.847 26.6916 179.813 26.6624 179.776C24.5203 177.073 23.2317 173.794 22.961 170.356C22.6903 166.918 23.4498 163.477 25.1425 160.473C26.8352 157.468 29.3844 155.036 32.4651 153.486C35.5458 151.936 39.0183 151.339 42.4398 151.771C45.8612 152.203 49.0765 153.644 51.6757 155.91C54.2748 158.177 56.1399 161.166 57.0332 164.497C57.9264 167.828 57.8074 171.349 56.6911 174.612C55.5749 177.875 53.5121 180.732 50.7658 182.817H50.7657Z" fill="#3F3D56"/>
<path d="M70.9861 73.2493C64.5924 67.8542 56.7684 64.4338 48.4661 63.4042C40.1639 62.3747 31.7414 63.7805 24.2236 67.4504C16.7057 71.1204 10.4167 76.8964 6.12164 84.0755C1.82662 91.2546 -0.289153 99.5273 0.0317749 107.887C0.352703 116.247 3.09649 124.333 7.92927 131.161C12.762 137.99 19.4754 143.267 27.2525 146.35C35.0296 149.433 43.5351 150.188 51.7339 148.525C59.9328 146.862 67.4715 142.852 73.4328 136.983L126.368 181.649C127.174 182.327 128.215 182.657 129.264 182.567C130.313 182.478 131.284 181.976 131.964 181.173C132.643 180.369 132.977 179.328 132.89 178.279C132.804 177.23 132.305 176.257 131.503 175.576L131.497 175.571L78.562 130.904C84.7114 122.078 87.3432 111.274 85.9418 100.609C84.5404 89.9441 79.2068 80.1868 70.9861 73.2493ZM67.5735 126.603C63.4497 131.49 57.9691 135.045 51.825 136.818C45.6809 138.59 39.1491 138.501 33.0557 136.561C26.9622 134.622 21.5808 130.919 17.592 125.92C13.6031 120.922 11.1859 114.854 10.6461 108.482C10.1063 102.11 11.468 95.721 14.5592 90.123C17.6504 84.5251 22.3321 79.9695 28.0124 77.0324C33.6927 74.0952 40.1163 72.9084 46.4711 73.6221C52.8259 74.3357 58.8263 76.9177 63.7136 81.0416C70.2673 86.5716 74.3558 94.4785 75.0797 103.023C75.8035 111.567 73.1035 120.049 67.5735 126.603Z" fill="#7A5DF8"/>
<path d="M177.703 183.319C178.117 182.815 178.415 182.225 178.576 181.593C178.737 180.961 178.757 180.301 178.636 179.659C178.514 179.018 178.253 178.412 177.872 177.882C177.491 177.353 176.998 176.913 176.428 176.595L166.779 137.102L159.741 139.349L170.16 178.572C169.688 179.565 169.597 180.695 169.904 181.75C170.21 182.805 170.893 183.711 171.823 184.296C172.753 184.882 173.865 185.105 174.949 184.925C176.032 184.745 177.013 184.174 177.703 183.319H177.703Z" fill="#FFB6B6"/>
<path d="M172.716 158.058L167.572 162.495L160.376 168.699L157.197 152.436L156.865 150.745L156.603 149.403L163.895 136.701L169.974 137.05L170.389 137.075L170.398 137.167L170.493 138.018L171.74 149.228L171.769 149.499L172.716 158.058Z" fill="#3F3D56"/>
<path d="M139.094 268.446L134 268.445L131.577 248.797L139.095 248.797L139.094 268.446Z" fill="#FFB6B6"/>
<path d="M140.393 273.383L123.968 273.382V273.174C123.968 271.479 124.642 269.853 125.841 268.654C127.04 267.455 128.666 266.781 130.361 266.781H130.362L140.394 266.782L140.393 273.383Z" fill="#2F2E41"/>
<path d="M192.279 268.862L187.185 268.861L184.761 249.213L192.28 249.213L192.279 268.862Z" fill="#FFB6B6"/>
<path d="M193.578 273.799L177.153 273.798V273.59C177.153 271.895 177.827 270.269 179.026 269.07C180.225 267.871 181.851 267.197 183.546 267.197H183.547L193.578 267.198L193.578 273.799Z" fill="#2F2E41"/>
<path d="M196.35 261.039L182.638 263.117L162.69 195.606L141.504 263.532L126.13 261.455L146.074 182.509V176.277L148.775 166.928L148.492 164.397L146.527 146.701L145.675 139.027L145.62 138.531C145.574 138.115 145.684 137.697 145.929 137.357C146.174 137.018 146.537 136.782 146.947 136.696L153.345 135.35H163.804L169.974 137.049L170.398 137.165L170.589 137.219L170.493 138.017L169.047 150.142L168.968 150.806L167.572 162.494L167.265 165.058C179.314 173.784 179.73 182.509 179.73 182.509L196.35 261.039Z" fill="#2F2E41"/>
<path d="M157.311 130.092C162.947 130.092 167.516 125.523 167.516 119.887C167.516 114.251 162.947 109.682 157.311 109.682C151.674 109.682 147.105 114.251 147.105 119.887C147.105 125.523 151.674 130.092 157.311 130.092Z" fill="#FFB6B6"/>
<path d="M168.03 162.713L147.842 165.354L148.219 168.237L168.407 165.597L168.03 162.713Z" fill="#3F3D56"/>
<path d="M120.763 166.223C120.956 166.348 121.139 166.488 121.31 166.642L141.278 161.551L142.64 156.734L150.179 157.84L148.596 166.602C148.468 167.31 148.114 167.957 147.587 168.447C147.06 168.936 146.388 169.242 145.673 169.317L122.359 171.772C121.979 172.572 121.364 173.238 120.597 173.68C119.829 174.122 118.945 174.32 118.063 174.248C117.18 174.176 116.34 173.836 115.655 173.275C114.97 172.714 114.472 171.957 114.227 171.106C113.982 170.255 114.002 169.349 114.285 168.51C114.568 167.67 115.099 166.937 115.809 166.407C116.518 165.877 117.372 165.575 118.257 165.542C119.142 165.51 120.017 165.747 120.763 166.223Z" fill="#FFB6B6"/>
<path d="M151.476 139.298L147.944 136.598C146.989 136.235 145.681 137.265 145.451 138.26L140.465 158.619L150.853 166.098L152.307 163.813L151.476 139.298Z" fill="#3F3D56"/>
<g opacity="0.2">
<path opacity="0.2" d="M171.74 149.225C170.858 149.575 169.96 149.88 169.047 150.14C168.757 150.227 168.457 150.31 168.162 150.389C166.218 150.928 164.22 151.252 162.204 151.353C161.336 151.39 160.467 151.366 159.603 151.282C158.675 151.19 157.758 151.009 156.865 150.742C156.836 150.734 156.802 150.725 156.773 150.717C154.916 150.19 153.212 149.222 151.808 147.896C151.494 147.59 151.202 147.264 150.931 146.919C150.156 145.969 149.586 144.868 149.26 143.685C148.934 142.502 148.858 141.265 149.037 140.051C149.071 139.831 149.119 139.613 149.178 139.399C149.335 138.814 149.542 138.244 149.797 137.695C149.909 137.438 150.034 137.184 150.167 136.935L154.862 135.348H163.804L169.974 137.047L170.389 137.072L170.398 137.163L170.589 137.217L170.493 138.015L171.74 149.225Z" fill="black"/>
</g>
<path d="M149.491 111.439C147.582 111.205 145.488 111.371 144 112.589C142.512 113.807 142.032 116.34 143.441 117.649C144.688 118.808 146.637 118.536 148.307 118.865C149.746 119.188 151.035 119.983 151.968 121.125C152.901 122.267 153.424 123.689 153.453 125.163C153.428 129.39 149.371 132.591 148.642 136.756C148.145 139.598 149.343 142.589 151.416 144.596C153.488 146.604 156.337 147.688 159.207 147.982C162.077 148.276 164.979 147.827 167.768 147.09C170.569 146.349 173.327 145.299 175.677 143.605C178.028 141.911 179.954 139.522 180.709 136.725C181.463 133.928 180.922 130.721 178.977 128.573C176.75 126.113 173.046 125.268 171.12 122.566C168.961 119.538 169.76 115.226 168.012 111.943C166.846 109.751 164.636 108.256 162.282 107.469C159.927 106.681 157.412 106.526 154.931 106.449C153.626 106.409 152.282 106.396 151.066 106.872C149.851 107.347 148.782 108.431 148.719 109.735C148.656 111.038 149.491 111.439 149.491 111.439Z" fill="#2F2E41"/>
<path d="M245.031 273.966H86.7248C86.6146 273.966 86.509 273.922 86.431 273.844C86.3531 273.766 86.3093 273.66 86.3093 273.55C86.3093 273.44 86.3531 273.334 86.431 273.256C86.509 273.179 86.6146 273.135 86.7248 273.135H245.031C245.142 273.135 245.247 273.179 245.325 273.256C245.403 273.334 245.447 273.44 245.447 273.55C245.447 273.66 245.403 273.766 245.325 273.844C245.247 273.922 245.142 273.966 245.031 273.966Z" fill="#CACACA"/>
</svg>
