<svg width="19" height="23" viewBox="0 0 19 23" fill="none" xmlns="http://www.w3.org/2000/svg">
<path d="M9.94646 0.00590574C10.1945 0.0590574 10.4484 0.100398 10.6965 0.177172C12.3737 0.690971 13.4545 1.80716 13.8206 3.51391C14.1868 5.22067 13.6435 6.66167 12.3324 7.8192C12.2851 7.86054 12.232 7.90778 12.1847 7.94912C12.1788 7.95503 12.1788 7.96094 12.1788 7.95503C12.6277 8.18536 13.0942 8.38024 13.5135 8.65191C14.0037 8.97082 14.4584 9.35469 14.9073 9.73266C15.049 9.85077 15.1494 9.8744 15.3089 9.80943C15.6337 9.6736 15.9644 9.54958 16.301 9.43147C16.803 9.25429 17.2341 9.54958 17.24 10.0811C17.246 10.8547 17.24 11.6284 17.24 12.4021C18.368 12.7505 19.0059 13.4769 19 14.6758C18.9941 15.6502 18.3858 16.353 17.24 16.7664C17.24 16.8373 17.24 16.914 17.24 16.9908C17.24 17.7408 17.24 18.4909 17.24 19.2468C17.24 19.613 17.0983 19.8256 16.7558 19.9555C14.4348 20.8295 12.1139 21.7036 9.79291 22.5599C9.62165 22.6249 9.39132 22.619 9.22006 22.554C6.8932 21.6977 4.57224 20.8236 2.25719 19.9496C1.91466 19.8197 1.77883 19.613 1.77883 19.2409C1.77883 18.4141 1.77883 17.5932 1.77883 16.7723C0.48547 16.2349 -0.0283298 15.5675 0.00119892 14.5045C0.0307276 13.53 0.615396 12.8332 1.76701 12.4139C1.76701 12.0418 1.76701 11.6638 1.76701 11.28C1.76701 10.8961 1.76701 10.5122 1.76701 10.1283C1.76701 9.53777 2.19223 9.24839 2.74737 9.45509C3.0899 9.57911 3.43243 9.71494 3.78087 9.83306C3.84583 9.85668 3.96395 9.84487 4.0112 9.80353C4.82028 9.00035 5.7652 8.39796 6.86367 7.98456C6.78689 7.9196 6.72783 7.87235 6.66878 7.8192C5.25731 6.55537 4.7317 4.99035 5.27502 3.17138C5.80654 1.38194 7.08218 0.342533 8.93067 0.0413402C8.97201 0.0354344 9.01336 0.0177172 9.0547 0C9.35589 0.00590574 9.65117 0.00590574 9.94646 0.00590574ZM8.83618 21.0126C8.83618 18.3728 8.83618 15.7624 8.83618 13.1462C6.92863 12.4316 5.02698 11.717 3.10762 10.9965C3.10762 11.4808 3.10762 11.9355 3.10762 12.3843C3.78087 12.656 3.98167 12.9572 3.98167 13.6836C3.98167 14.286 3.98167 14.8943 3.98167 15.4967C3.98167 16.2172 3.78087 16.5243 3.09581 16.7959C3.09581 17.416 3.10171 18.0361 3.0899 18.6621C3.0899 18.8098 3.13124 18.8747 3.27298 18.9279C4.4305 19.3531 5.58803 19.796 6.74555 20.2272C7.43652 20.4929 8.12159 20.7469 8.83618 21.0126ZM15.9172 16.8018C15.238 16.5243 15.0313 16.2231 15.0313 15.5026C15.0313 14.9002 15.0313 14.2919 15.0313 13.6895C15.0313 12.969 15.238 12.6619 15.9054 12.3902C15.9054 11.9414 15.9054 11.4867 15.9054 11.0142C15.8345 11.0378 15.7754 11.0555 15.7105 11.0733C13.9328 11.7406 12.1552 12.408 10.3776 13.0694C10.2122 13.1285 10.1591 13.1993 10.1591 13.3824C10.165 15.851 10.165 18.3196 10.165 20.7882C10.165 20.8591 10.1709 20.9299 10.1768 21.0185C10.5961 20.8591 10.9977 20.7114 11.3934 20.5638C12.8403 20.0205 14.2872 19.4771 15.7282 18.9338C15.799 18.9102 15.8994 18.8334 15.8994 18.7862C15.9172 18.1188 15.9172 17.4574 15.9172 16.8018ZM9.49763 1.3347C7.79677 1.3347 6.40892 2.72845 6.40892 4.4293C6.40892 6.13016 7.79677 7.51801 9.49763 7.52391C11.2103 7.52391 12.5981 6.13016 12.5981 4.41749C12.5922 2.71664 11.2044 1.32879 9.49763 1.3347ZM13.6671 10.4236C11.4288 8.32119 7.56645 8.3389 5.34589 10.4177C5.43448 10.4532 5.52306 10.4886 5.61165 10.524C6.85186 10.9906 8.08615 11.4571 9.33226 11.9119C9.43857 11.9473 9.58031 11.9532 9.6807 11.9119C10.4662 11.6284 11.2516 11.3272 12.0371 11.0378C12.5804 10.837 13.1178 10.6303 13.6671 10.4236ZM2.64697 13.719C2.44617 13.719 2.2631 13.6954 2.08592 13.7249C1.41858 13.8135 1.09967 14.5931 1.50716 15.1246C1.80245 15.5144 2.21585 15.5026 2.64697 15.4612C2.64697 14.8766 2.64697 14.3155 2.64697 13.719ZM16.3601 15.473C16.555 15.473 16.7322 15.4908 16.9034 15.4671C17.4763 15.4022 17.8306 14.8057 17.618 14.2683C17.4349 13.8076 16.9152 13.5891 16.3601 13.7427C16.3601 14.3096 16.3601 14.8766 16.3601 15.473Z" fill="#7A5DF8"/>
</svg>
