<svg width="15" height="15" viewBox="0 0 15 15" fill="none" xmlns="http://www.w3.org/2000/svg">
<rect width="15" height="15" rx="7.5" fill="white"/>
<path d="M4.61548 8.19228C4.644 8.05388 4.72813 7.94972 4.82937 7.85698C4.87215 7.81846 4.91065 7.77565 4.952 7.73428C5.14736 7.54309 5.41971 7.54166 5.61364 7.73428C5.95444 8.07386 6.29381 8.41486 6.63461 8.75444C6.64602 8.76585 6.65743 8.77584 6.67169 8.79011C6.6888 8.77442 6.70449 8.75872 6.72017 8.74303C7.65987 7.80276 8.59956 6.8625 9.53926 5.92224C9.69897 5.76244 9.9043 5.72534 10.0897 5.82379C10.1339 5.84662 10.1724 5.87944 10.2095 5.91368C10.2722 5.97075 10.3307 6.03353 10.3905 6.09346C10.6016 6.30605 10.603 6.57429 10.392 6.78546C10.0911 7.08651 9.79165 7.38756 9.49078 7.68719C8.63664 8.54613 7.77965 9.40221 6.92266 10.2597C6.75582 10.4267 6.59041 10.4267 6.425 10.2597C5.89455 9.72894 5.36552 9.19817 4.83365 8.66883C4.73668 8.57181 4.64685 8.47193 4.61548 8.33068C4.61548 8.28502 4.61548 8.23794 4.61548 8.19228Z" fill="#7A5DF8"/>
</svg>
