<svg width="30" height="30" viewBox="0 0 30 30" fill="none" xmlns="http://www.w3.org/2000/svg">
<rect width="30" height="30" rx="15" fill="#03A9F4"/>
<path d="M20.1516 11.9906C20.1602 12.1219 20.1602 12.2531 20.1602 12.3844C20.1602 16.3875 17.3672 21 12.2625 21C10.6898 21 9.22891 20.5031 8 19.6406C8.22345 19.6687 8.43827 19.6781 8.67031 19.6781C9.96795 19.6781 11.1625 19.2 12.1164 18.3844C10.8961 18.3563 9.87343 17.4844 9.52108 16.2844C9.69297 16.3125 9.86483 16.3312 10.0453 16.3312C10.2945 16.3312 10.5438 16.2937 10.7758 16.2281C9.50391 15.9469 8.54998 14.7281 8.54998 13.2562V13.2188C8.91949 13.4438 9.34922 13.5844 9.80465 13.6031C9.057 13.0594 8.56717 12.1312 8.56717 11.0812C8.56717 10.5187 8.70465 10.0031 8.94529 9.55311C10.3117 11.3906 12.3656 12.5906 14.6687 12.7219C14.6258 12.4969 14.6 12.2625 14.6 12.0281C14.6 10.3594 15.8375 9 17.3758 9C18.175 9 18.8968 9.36562 19.4039 9.95625C20.0312 9.82501 20.6328 9.57187 21.1656 9.225C20.9593 9.92814 20.5211 10.5188 19.9453 10.8937C20.5039 10.8281 21.0453 10.6594 21.5437 10.425C21.1657 11.025 20.693 11.5593 20.1516 11.9906Z" fill="white"/>
</svg>
